<svg width="158" height="38" viewBox="0 0 158 38" fill="none" xmlns="http://www.w3.org/2000/svg">
<path d="M22.428 30.407C23.226 30.407 23.926 30.316 24.528 30.134C25.13 29.952 25.606 29.763 25.956 29.567C26.306 29.371 26.502 29.245 26.544 29.189L28.035 31.751C27.685 32.157 27.041 32.598 26.103 33.074C25.179 33.564 23.94 33.809 22.386 33.809C21.406 33.809 20.566 33.704 19.866 33.494C19.18 33.284 18.536 33.032 17.934 32.738C17.332 32.458 16.702 32.206 16.044 31.982C15.386 31.772 14.609 31.667 13.713 31.667C12.859 31.667 12.096 31.814 11.424 32.108C10.752 32.416 10.213 32.724 9.807 33.032C9.401 33.34 9.184 33.522 9.156 33.578L7.392 31.562C8.288 30.722 9.296 30.043 10.416 29.525C11.536 29.021 12.852 28.769 14.364 28.769C15.456 28.769 16.422 28.902 17.262 29.168C18.116 29.448 18.949 29.721 19.761 29.987C20.573 30.267 21.462 30.407 22.428 30.407ZM4.662 15.119C4.662 17.177 5.089 19.032 5.943 20.684C6.811 22.336 8.001 23.652 9.513 24.632C11.025 25.598 12.761 26.081 14.721 26.081C16.695 26.081 18.431 25.598 19.929 24.632C21.441 23.652 22.624 22.336 23.478 20.684C24.332 19.032 24.759 17.177 24.759 15.119C24.759 13.061 24.332 11.213 23.478 9.575C22.624 7.923 21.441 6.614 19.929 5.648C18.431 4.682 16.695 4.199 14.721 4.199C12.761 4.199 11.025 4.682 9.513 5.648C8.001 6.614 6.811 7.923 5.943 9.575C5.089 11.213 4.662 13.061 4.662 15.119ZM0.945 15.119C0.945 13.103 1.288 11.227 1.974 9.491C2.674 7.741 3.647 6.215 4.893 4.913C6.139 3.611 7.595 2.596 9.261 1.868C10.941 1.14 12.761 0.775998 14.721 0.775998C16.695 0.775998 18.515 1.14 20.181 1.868C21.861 2.596 23.317 3.611 24.549 4.913C25.795 6.215 26.761 7.741 27.447 9.491C28.133 11.227 28.476 13.103 28.476 15.119C28.476 17.149 28.133 19.039 27.447 20.789C26.775 22.525 25.816 24.051 24.57 25.367C23.338 26.669 21.889 27.684 20.223 28.412C18.557 29.14 16.723 29.504 14.721 29.504C12.719 29.504 10.871 29.14 9.177 28.412C7.497 27.684 6.041 26.669 4.809 25.367C3.577 24.051 2.625 22.525 1.953 20.789C1.281 19.039 0.945 17.149 0.945 15.119ZM35.3643 20.453C35.3643 22.259 35.7493 23.701 36.5193 24.779C37.3033 25.843 38.5003 26.375 40.1103 26.375C41.7343 26.375 42.9313 25.843 43.7013 24.779C44.4713 23.701 44.8563 22.259 44.8563 20.453V11.759H48.4683V20.957C48.4683 22.637 48.1393 24.121 47.4813 25.409C46.8373 26.697 45.8923 27.705 44.6463 28.433C43.4143 29.147 41.9023 29.504 40.1103 29.504C38.3323 29.504 36.8203 29.147 35.5743 28.433C34.3423 27.705 33.3973 26.697 32.7393 25.409C32.0953 24.121 31.7733 22.637 31.7733 20.957V11.759H35.3643V20.453ZM53.8325 29V11.759H57.4865V29H53.8325ZM55.7015 5.858C55.0435 5.858 54.4765 5.627 54.0005 5.165C53.5385 4.689 53.3075 4.122 53.3075 3.464C53.3075 2.806 53.5385 2.239 54.0005 1.763C54.4765 1.287 55.0435 1.049 55.7015 1.049C56.1355 1.049 56.5345 1.161 56.8985 1.385C57.2765 1.609 57.5775 1.903 57.8015 2.267C58.0255 2.617 58.1375 3.016 58.1375 3.464C58.1375 4.122 57.8995 4.689 57.4235 5.165C56.9475 5.627 56.3735 5.858 55.7015 5.858ZM62.4002 11.759H77.4362L67.1252 26.228H77.0162V29H61.2242L71.5352 14.51H62.4002V11.759ZM99.7139 1.28H103.452L113.7 29H109.857L107.463 22.322H95.7029L93.2669 29H89.4239L99.7139 1.28ZM96.8579 19.088H106.329L101.625 5.69H101.562L96.8579 19.088ZM120.253 37.736H116.62V11.759H120.316V14.993C120.442 14.559 120.792 14.048 121.366 13.46C121.94 12.872 122.71 12.361 123.676 11.927C124.656 11.479 125.776 11.255 127.036 11.255C128.632 11.255 130.046 11.64 131.278 12.41C132.524 13.166 133.497 14.23 134.197 15.602C134.911 16.96 135.268 18.556 135.268 20.39C135.268 22.224 134.904 23.827 134.176 25.199C133.448 26.557 132.454 27.614 131.194 28.37C129.948 29.126 128.52 29.504 126.91 29.504C125.608 29.504 124.467 29.259 123.487 28.769C122.521 28.279 121.758 27.726 121.198 27.11C120.652 26.494 120.337 26.004 120.253 25.64V37.736ZM131.656 20.39C131.656 19.144 131.397 18.066 130.879 17.156C130.375 16.246 129.703 15.539 128.863 15.035C128.023 14.531 127.113 14.279 126.133 14.279C125.055 14.279 124.075 14.538 123.193 15.056C122.311 15.56 121.611 16.274 121.093 17.198C120.575 18.108 120.316 19.172 120.316 20.39C120.316 21.608 120.575 22.679 121.093 23.603C121.611 24.513 122.311 25.22 123.193 25.724C124.075 26.228 125.055 26.48 126.133 26.48C127.113 26.48 128.023 26.235 128.863 25.745C129.703 25.241 130.375 24.534 130.879 23.624C131.397 22.714 131.656 21.636 131.656 20.39ZM142.77 37.736H139.137V11.759H142.833V14.993C142.959 14.559 143.309 14.048 143.883 13.46C144.457 12.872 145.227 12.361 146.193 11.927C147.173 11.479 148.293 11.255 149.553 11.255C151.149 11.255 152.563 11.64 153.795 12.41C155.041 13.166 156.014 14.23 156.714 15.602C157.428 16.96 157.785 18.556 157.785 20.39C157.785 22.224 157.421 23.827 156.693 25.199C155.965 26.557 154.971 27.614 153.711 28.37C152.465 29.126 151.037 29.504 149.427 29.504C148.125 29.504 146.984 29.259 146.004 28.769C145.038 28.279 144.275 27.726 143.715 27.11C143.169 26.494 142.854 26.004 142.77 25.64V37.736ZM154.173 20.39C154.173 19.144 153.914 18.066 153.396 17.156C152.892 16.246 152.22 15.539 151.38 15.035C150.54 14.531 149.63 14.279 148.65 14.279C147.572 14.279 146.592 14.538 145.71 15.056C144.828 15.56 144.128 16.274 143.61 17.198C143.092 18.108 142.833 19.172 142.833 20.39C142.833 21.608 143.092 22.679 143.61 23.603C144.128 24.513 144.828 25.22 145.71 25.724C146.592 26.228 147.572 26.48 148.65 26.48C149.63 26.48 150.54 26.235 151.38 25.745C152.22 25.241 152.892 24.534 153.396 23.624C153.914 22.714 154.173 21.636 154.173 20.39Z" fill="#7A6FAC"/>
</svg>
